<?xml version="1.0" encoding="UTF-8" standalone="no"?>
<!-- Created with Inkscape (http://www.inkscape.org/) -->

<svg
   width="161.33757mm"
   height="44.452286mm"
   viewBox="0 0 161.33757 44.452286"
   version="1.1"
   id="svg1"
   xmlns="http://www.w3.org/2000/svg"
   xmlns:svg="http://www.w3.org/2000/svg">
  <defs
     id="defs1" />
  <g
     id="layer1"
     transform="translate(-10.124735,-111.31678)">
    <style
       id="style1">
.MsftOfcThm_Text1_lumMod_65_lumOff_35_Fill_v2 {
 fill:#595959; 
}
</style>
    <path
       d="m 165.19546,133.55036 -12.28362,11.05093 c -1.5418,1.38709 -1.66725,3.76148 -0.28014,5.3033 1.38708,1.54181 3.76149,1.66725 5.30332,0.28014 l 12.2836,-11.05092 c 1.54184,-1.38709 1.66723,-3.76148 0.28014,-5.3033 -1.38708,-1.54182 -3.76147,-1.66725 -5.30328,-0.28015 z m -8.02296,14.2896 c -0.61673,0.55485 -1.56656,0.5044 -2.12133,-0.11211 -0.55485,-0.61676 -0.50439,-1.56657 0.11211,-2.12133 0.61674,-0.55485 1.56656,-0.5044 2.12131,0.1121 0.55486,0.61674 0.50439,1.56656 -0.11211,2.12131 z m 5.39735,-4.8557 c -0.61676,0.55485 -1.56655,0.50439 -2.12133,-0.11211 -0.55486,-0.61676 -0.5044,-1.56655 0.11211,-2.12131 0.61676,-0.55487 1.56656,-0.50439 2.12133,0.11211 0.55487,0.61675 0.5044,1.56656 -0.11211,2.12134 z m 5.39734,-4.85572 c -0.61674,0.55487 -1.56657,0.5044 -2.12132,-0.11211 -0.55487,-0.61677 -0.5044,-1.56655 0.11211,-2.12133 0.61676,-0.55486 1.56656,-0.50439 2.12132,0.11211 0.55486,0.61677 0.5044,1.56656 -0.11211,2.12134 z"
       class="MsftOfcThm_Text1_lumMod_65_lumOff_35_Fill_v2"
       fill="#595959"
       id="path1"
       style="stroke-width:0.500697" />
    <path
       d="m 144.205,116.0653 -2.46044,2.21352 -1.52369,-1.69366 c 0.34226,-1.05185 -0.23298,-2.18193 -1.28483,-2.52418 -1.05183,-0.34223 -2.18194,0.23297 -2.5242,1.28481 -0.34225,1.05185 0.23298,2.18196 1.28483,2.5242 0.33433,0.10869 0.69135,0.12772 1.03526,0.0547 l 1.5237,1.69366 -2.46043,2.21353 c -0.90036,0.81254 -0.9731,2.20073 -0.16404,3.10419 l 3.75729,4.17642 c 0.81257,0.90036 2.20075,0.97309 3.10421,0.16403 l 6.4098,-5.76657 c 0.90037,-0.81254 0.9731,-2.20072 0.16404,-3.1042 l -3.75733,-4.17641 c -0.81254,-0.90035 -2.20073,-0.9731 -3.1042,-0.16403 z m -0.71267,9.39666 c -0.61675,0.55487 -1.56655,0.5044 -2.12132,-0.11211 -0.55485,-0.61675 -0.5044,-1.56655 0.1121,-2.12132 0.61676,-0.55487 1.56658,-0.5044 2.12133,0.11211 0.55487,0.61675 0.5044,1.56655 -0.11211,2.12132 z m 3.72231,-3.34877 c -0.61676,0.55487 -1.56654,0.50439 -2.12131,-0.11211 -0.55487,-0.61676 -0.5044,-1.56656 0.11211,-2.12133 0.61674,-0.55485 1.56655,-0.50439 2.12133,0.11211 0.55486,0.61674 0.50439,1.56654 -0.1121,2.12131 z"
       class="MsftOfcThm_Text1_lumMod_65_lumOff_35_Fill_v2"
       fill="#595959"
       id="path2"
       style="stroke-width:0.500697" />
    <circle
       cx="22.929462"
       cy="187.73993"
       r="0.75104624"
       class="MsftOfcThm_Text1_lumMod_65_lumOff_35_Fill_v2"
       fill="#595959"
       id="circle2"
       style="stroke-width:0.500697"
       transform="rotate(-41.976056)" />
    <path
       d="m 164.34775,125.43624 -2.78953,-3.10068 c -0.83039,-0.92305 -2.25184,-0.99814 -3.1749,-0.16772 l -2.05099,1.8452 -1.6744,-1.86116 -11.91136,10.71605 2.00925,2.23338 -2.79544,2.51492 c -0.10079,0.0906 -0.25593,0.0823 -0.34648,-0.0182 l -2.77615,-3.08579 c 0.93961,-1.52907 0.46176,-3.53029 -1.06727,-4.46989 -0.40992,-0.25191 -0.87066,-0.40962 -1.34897,-0.46178 l -0.22598,1.99476 c 0.30899,0.0292 0.59656,0.17048 0.80863,0.39725 0.45955,0.51647 0.41353,1.30768 -0.10296,1.76727 -0.51647,0.45955 -1.3076,0.41351 -1.76721,-0.10294 -0.19853,-0.22308 -0.31072,-0.50976 -0.31644,-0.8083 l -1.99742,0.0257 c 0.0295,1.79722 1.51028,3.23021 3.30748,3.20071 0.40659,-0.007 0.80828,-0.0893 1.18435,-0.2441 l 2.81296,3.12675 c 0.83044,0.92305 2.25185,0.99814 3.17492,0.16771 l 2.79547,-2.51492 6.02777,6.70015 11.91137,-10.71604 -6.36266,-7.07238 2.05099,-1.84518 c 0.1008,-0.0905 0.25594,-0.0823 0.34649,0.0182 l 2.78953,3.10069 c -0.90139,1.55509 -0.37142,3.54641 1.18365,4.44778 0.38924,0.22555 0.82093,0.36804 1.26795,0.41839 l 0.22597,-1.99477 c -0.30591,-0.0303 -0.58931,-0.17432 -0.79411,-0.40358 -0.46191,-0.51434 -0.41947,-1.30578 0.0949,-1.7677 0.51434,-0.46192 1.30578,-0.41948 1.76769,0.0949 0.20262,0.22559 0.31646,0.51702 0.32036,0.82025 l 1.9974,-0.0257 c -0.0208,-1.79455 -1.49259,-3.23236 -3.28712,-3.2115 -0.444,0.004 -0.88231,0.1013 -1.28772,0.2824 z m -6.49046,3.26636 -1.03479,0.93096 c -0.0298,0.0393 -0.0519,0.0836 -0.0635,0.13122 l -0.091,2.18981 -2.71581,-1.27445 1.39469,4.8068 -5.06006,-3.34118 0.79968,2.64811 -1.79046,1.61076 -0.66974,-0.74447 1.3177,-1.18548 -1.41519,-4.6873 5.09132,3.35346 -1.22357,-4.28722 3.35586,1.57416 0.0374,-0.70712 c 0.0135,-0.31248 0.14385,-0.60854 0.36301,-0.8317 l 1.03482,-0.93096 z"
       class="MsftOfcThm_Text1_lumMod_65_lumOff_35_Fill_v2"
       fill="#595959"
       id="path3"
       style="stroke-width:0.500697" />
    <path
       d="M 132.16362,137.62366 119.88,148.67459 c -1.54181,1.38709 -1.66725,3.76148 -0.28014,5.30331 1.38708,1.5418 3.76149,1.66725 5.30331,0.28014 l 12.28361,-11.05092 c 1.54183,-1.3871 1.66723,-3.76149 0.28014,-5.30331 -1.38708,-1.54182 -3.76147,-1.66724 -5.30329,-0.28015 z m -8.02296,14.28961 c -0.61674,0.55484 -1.56656,0.50439 -2.12133,-0.11212 -0.55485,-0.61676 -0.5044,-1.56657 0.11211,-2.12133 0.61673,-0.55485 1.56655,-0.50439 2.12131,0.11211 0.55486,0.61674 0.50439,1.56655 -0.11211,2.12131 z m 5.39735,-4.85571 c -0.61676,0.55485 -1.56656,0.5044 -2.12133,-0.11211 -0.55486,-0.61676 -0.5044,-1.56655 0.1121,-2.12131 0.61677,-0.55487 1.56657,-0.5044 2.12134,0.11211 0.55487,0.61676 0.5044,1.56655 -0.11211,2.12133 z m 5.39733,-4.85572 c -0.61674,0.55487 -1.56656,0.5044 -2.12131,-0.11211 -0.55487,-0.61676 -0.5044,-1.56655 0.11211,-2.12132 0.61676,-0.55488 1.56656,-0.5044 2.12132,0.11211 0.55485,0.61676 0.5044,1.56654 -0.11211,2.12132 z"
       class="MsftOfcThm_Text1_lumMod_65_lumOff_35_Fill_v2"
       fill="#595959"
       id="path1-6"
       style="fill:#595959;stroke-width:0.500697" />
    <path
       d="m 111.17315,120.13861 -2.46044,2.21352 -1.52368,-1.69367 c 0.34225,-1.05184 -0.23298,-2.18193 -1.28484,-2.52418 -1.05182,-0.34223 -2.18193,0.23298 -2.52419,1.28482 -0.34226,1.05185 0.23298,2.18195 1.28483,2.5242 0.33433,0.10868 0.69135,0.12771 1.03525,0.0547 l 1.52371,1.69366 -2.46044,2.21353 c -0.90036,0.81254 -0.97309,2.20072 -0.16404,3.10419 l 3.7573,4.17642 c 0.81256,0.90035 2.20075,0.97308 3.1042,0.16403 l 6.4098,-5.76657 c 0.90037,-0.81254 0.97311,-2.20073 0.16404,-3.1042 l -3.75732,-4.17642 c -0.81254,-0.90036 -2.20073,-0.97309 -3.1042,-0.16404 z m -0.71266,9.39666 c -0.61676,0.55486 -1.56655,0.50439 -2.12132,-0.11211 -0.55485,-0.61675 -0.5044,-1.56656 0.1121,-2.12133 0.61676,-0.55487 1.56658,-0.5044 2.12133,0.11211 0.55486,0.61676 0.5044,1.56655 -0.11211,2.12133 z m 3.72231,-3.34878 c -0.61676,0.55487 -1.56655,0.5044 -2.12131,-0.11211 -0.55487,-0.61676 -0.5044,-1.56656 0.11211,-2.12133 0.61674,-0.55485 1.56655,-0.50439 2.12133,0.11211 0.55485,0.61674 0.5044,1.56654 -0.1121,2.12131 z"
       class="MsftOfcThm_Text1_lumMod_65_lumOff_35_Fill_v2"
       fill="#595959"
       id="path2-9"
       style="fill:#595959;stroke-width:0.500697" />
    <circle
       cx="-4.3515205"
       cy="168.67577"
       r="0.75104624"
       class="MsftOfcThm_Text1_lumMod_65_lumOff_35_Fill_v2"
       fill="#595959"
       id="circle2-5"
       style="fill:#595959;stroke-width:0.500697"
       transform="rotate(-41.976056)" />
    <path
       d="m 131.31591,129.50955 -2.78953,-3.10068 c -0.8304,-0.92306 -2.25185,-0.99815 -3.17491,-0.16772 l -2.05099,1.84519 -1.67439,-1.86116 -11.91136,10.71605 2.00925,2.23338 -2.79544,2.51493 c -0.1008,0.0906 -0.25594,0.0824 -0.34649,-0.0182 l -2.77614,-3.0858 c 0.93961,-1.52906 0.46176,-3.53029 -1.06727,-4.46988 -0.40993,-0.25192 -0.87066,-0.40963 -1.34898,-0.46179 l -0.22598,1.99475 c 0.309,0.0292 0.59657,0.1705 0.80863,0.39726 0.45956,0.51648 0.41353,1.30768 -0.10295,1.76727 -0.51647,0.45955 -1.30761,0.41351 -1.76722,-0.10295 -0.19852,-0.22307 -0.31072,-0.50975 -0.31644,-0.80829 l -1.997418,0.0257 c 0.0295,1.79721 1.510288,3.23019 3.307488,3.20071 0.40659,-0.007 0.80828,-0.0893 1.18435,-0.24411 l 2.81296,3.12675 c 0.83044,0.92304 2.25185,0.99815 3.17492,0.16771 l 2.79546,-2.51491 6.02778,6.70014 11.91137,-10.71604 -6.36266,-7.07238 2.05098,-1.84518 c 0.10081,-0.0906 0.25594,-0.0824 0.34649,0.0182 l 2.78954,3.10069 c -0.90139,1.55509 -0.37142,3.54641 1.18365,4.44779 0.38924,0.22555 0.82093,0.36803 1.26795,0.41838 l 0.22597,-1.99476 c -0.30591,-0.0303 -0.58931,-0.17432 -0.79412,-0.40359 -0.4619,-0.51434 -0.41948,-1.30577 0.0949,-1.7677 0.51435,-0.46191 1.30578,-0.41948 1.76769,0.0949 0.20263,0.2256 0.31647,0.51703 0.32036,0.82026 l 1.99741,-0.0257 c -0.0209,-1.79454 -1.49259,-3.23236 -3.28712,-3.2115 -0.444,0.004 -0.88232,0.1013 -1.28772,0.28241 z m -6.49046,3.26635 -1.0348,0.93096 c -0.0298,0.0393 -0.0519,0.0836 -0.0635,0.13123 l -0.091,2.18981 -2.71581,-1.27446 1.3947,4.80679 -5.06006,-3.34117 0.79968,2.64811 -1.79046,1.61076 -0.66974,-0.74447 1.3177,-1.18547 -1.41519,-4.68731 5.09132,3.35345 -1.22357,-4.28721 3.35586,1.57416 0.0374,-0.70712 c 0.0135,-0.31247 0.14385,-0.60854 0.363,-0.8317 l 1.03483,-0.93096 z"
       class="MsftOfcThm_Text1_lumMod_65_lumOff_35_Fill_v2"
       fill="#595959"
       id="path3-2"
       style="fill:#595959;stroke-width:0.500697" />
  </g>
</svg>
